<svg width="581" height="90" fill="none" xmlns="http://www.w3.org/2000/svg"><path d="M54.46 54.933c1.707-3.103 2.56-6.361 2.56-9.697 0-5.973-2.171-11.403-6.166-15.32-4.616-4.539-11.326-6.827-19.316-6.71-14.429.27-30.37 11.208-31.534 30.835-.039.659.194 1.318.66 1.823a2.23 2.23 0 0 0 1.667.736h6.167c.078-2.598.388-4.421.466-4.77 2.094-12.49 11.21-20.557 23.233-20.557 3.646 0 7.214.93 10.55 2.792 5.857 3.22 9.774 10.124 9.503 16.756v.582c-.155 3.918-1.552 7.253-4.073 9.774 2.677-1.512 4.887-3.723 6.284-6.244z" fill="#fff"/><path d="M48.216 41.784c-1.551-2.638-3.724-4.849-6.283-6.245-3.103-1.706-6.361-2.56-9.697-2.56-5.973 0-11.403 2.172-15.32 6.167-4.539 4.616-6.866 11.326-6.711 19.316.271 14.429 11.21 30.37 30.836 31.534a2.476 2.476 0 0 0 1.823-.66 2.23 2.23 0 0 0 .736-1.668v-6.167c-2.598-.077-4.421-.387-4.77-.465-12.49-2.094-20.557-11.21-20.557-23.272 0-3.646.93-7.176 2.792-10.55 3.22-5.857 10.124-9.774 16.756-9.503h.582c3.917.155 7.292 1.552 9.813 4.073z" fill="#fff"/><path d="M22.54 48.067c-1.707 3.103-2.56 6.361-2.56 9.697 0 5.973 2.171 11.403 6.166 15.32 4.616 4.539 11.287 6.827 19.316 6.71 14.429-.27 30.37-11.208 31.534-30.834a2.476 2.476 0 0 0-.66-1.824 2.23 2.23 0 0 0-1.668-.736h-6.167c-.077 2.598-.387 4.421-.465 4.77-2.094 12.49-11.21 20.557-23.233 20.557-3.646 0-7.215-.93-10.55-2.792-5.857-3.22-9.774-10.124-9.503-16.795 0-4.15 1.435-7.719 4.073-10.356-2.715 1.551-4.887 3.724-6.284 6.283z" fill="#fff"/><path d="M66.756 44.538c-.271-14.429-11.21-30.37-30.835-31.534a2.476 2.476 0 0 0-1.823.66 2.23 2.23 0 0 0-.737 1.667V21.5c2.599.077 4.422.387 4.77.465 12.49 2.094 20.557 11.21 20.557 23.272 0 3.646-.93 7.175-2.792 10.55-3.258 5.895-10.046 9.774-16.756 9.503h-.582c-3.917-.156-7.253-1.552-9.774-4.073 1.551 2.638 3.724 4.848 6.283 6.245 3.103 1.706 6.361 2.56 9.697 2.56 5.973 0 11.403-2.172 15.32-6.167 4.539-4.655 6.827-11.326 6.672-19.316zM119.739 80.845c-6.706 0-12.172-2.057-16.399-6.17-4.198-4.114-6.297-9.594-6.297-16.441V57.05c0-4.592.888-8.692 2.663-12.298 1.775-3.635 4.282-6.425 7.523-8.369 3.268-1.972 6.987-2.958 11.157-2.958 6.256 0 11.172 1.972 14.751 5.917 3.606 3.944 5.409 9.537 5.409 16.779v4.987h-29.12c.395 2.987 1.578 5.382 3.551 7.185 2 1.803 4.522 2.705 7.565 2.705 4.705 0 8.382-1.705 11.031-5.114l6.001 6.72c-1.831 2.592-4.311 4.62-7.438 6.086-3.128 1.437-6.593 2.155-10.397 2.155zm-1.395-37.53c-2.423 0-4.395.817-5.917 2.451-1.493 1.634-2.451 3.973-2.874 7.016h16.99v-.972c-.056-2.705-.788-4.79-2.197-6.255-1.409-1.494-3.41-2.24-6.002-2.24zm44.589 4.606l7.692-13.65h13.06l-13.018 22.4L184.234 80h-13.102l-8.157-14.37L154.86 80h-13.144l13.567-23.33-12.975-22.4h13.102l7.523 13.651zm23.034 8.791c0-4.536.873-8.58 2.62-12.13 1.747-3.55 4.255-6.297 7.523-8.241 3.297-1.944 7.115-2.916 11.454-2.916 6.171 0 11.2 1.888 15.088 5.663 3.917 3.776 6.1 8.904 6.551 15.384l.085 3.128c0 7.016-1.958 12.651-5.875 16.906-3.916 4.226-9.171 6.34-15.764 6.34-6.594 0-11.863-2.114-15.807-6.34-3.917-4.227-5.875-9.975-5.875-17.244v-.55zm12.214.888c0 4.34.817 7.664 2.452 9.974 1.634 2.283 3.972 3.424 7.016 3.424 2.958 0 5.268-1.127 6.931-3.381 1.662-2.283 2.493-5.917 2.493-10.905 0-4.254-.831-7.55-2.493-9.89-1.663-2.338-4.001-3.507-7.016-3.507-2.987 0-5.297 1.169-6.931 3.508-1.635 2.31-2.452 5.902-2.452 10.777zm51.52 22.4h-12.256V15.082h12.256V80zm31.149.845c-6.706 0-12.172-2.057-16.398-6.17-4.199-4.114-6.298-9.594-6.298-16.441V57.05c0-4.592.888-8.692 2.663-12.298 1.775-3.635 4.283-6.425 7.523-8.369 3.268-1.972 6.988-2.958 11.158-2.958 6.255 0 11.172 1.972 14.75 5.917 3.606 3.944 5.41 9.537 5.41 16.779v4.987h-29.12c.394 2.987 1.578 5.382 3.55 7.185 2 1.803 4.522 2.705 7.565 2.705 4.706 0 8.383-1.705 11.031-5.114l6.002 6.72c-1.832 2.592-4.311 4.62-7.439 6.086-3.127 1.437-6.593 2.155-10.397 2.155zm-1.395-37.53c-2.423 0-4.395.817-5.917 2.451-1.493 1.634-2.451 3.973-2.874 7.016h16.991v-.972c-.057-2.705-.789-4.79-2.198-6.255-1.409-1.494-3.409-2.24-6.002-2.24zM333.131 80c-.564-1.099-.972-2.465-1.226-4.1-2.958 3.297-6.804 4.945-11.538 4.945-4.48 0-8.199-1.296-11.158-3.888-2.93-2.592-4.395-5.86-4.395-9.805 0-4.847 1.789-8.566 5.368-11.158 3.606-2.592 8.805-3.902 15.595-3.93h5.621v-2.621c0-2.113-.549-3.804-1.648-5.072-1.071-1.268-2.775-1.902-5.114-1.902-2.057 0-3.677.493-4.86 1.48-1.156.986-1.733 2.338-1.733 4.057h-12.215c0-2.649.817-5.1 2.452-7.354 1.634-2.254 3.944-4.015 6.931-5.283 2.987-1.296 6.34-1.944 10.059-1.944 5.635 0 10.101 1.423 13.398 4.269 3.324 2.817 4.987 6.79 4.987 11.918v19.822c.028 4.34.634 7.622 1.817 9.847V80h-12.341zm-10.101-8.495c1.803 0 3.466-.395 4.987-1.183 1.522-.818 2.649-1.902 3.381-3.255v-7.861h-4.564c-6.115 0-9.369 2.113-9.763 6.34l-.043.718c0 1.522.536 2.776 1.606 3.762 1.071.986 2.536 1.479 4.396 1.479zm28.106-14.708c0-7.129 1.592-12.806 4.775-17.032 3.213-4.227 7.594-6.34 13.145-6.34 4.451 0 8.128 1.662 11.031 4.987v-23.33h12.256V80h-11.031l-.591-4.86c-3.043 3.803-6.96 5.705-11.75 5.705-5.382 0-9.707-2.113-12.975-6.34-3.24-4.254-4.86-10.157-4.86-17.708zm12.214.888c0 4.282.747 7.565 2.24 9.847 1.493 2.282 3.663 3.424 6.509 3.424 3.775 0 6.438-1.593 7.988-4.776V48.133c-1.522-3.184-4.156-4.776-7.904-4.776-5.889 0-8.833 4.776-8.833 14.328zm59.508 23.16c-6.706 0-12.172-2.057-16.399-6.17-4.198-4.114-6.297-9.594-6.297-16.441V57.05c0-4.592.888-8.692 2.663-12.298 1.775-3.635 4.282-6.425 7.523-8.369 3.268-1.972 6.987-2.958 11.158-2.958 6.255 0 11.171 1.972 14.75 5.917 3.606 3.944 5.41 9.537 5.41 16.779v4.987h-29.121c.395 2.987 1.578 5.382 3.551 7.185 2 1.803 4.522 2.705 7.565 2.705 4.705 0 8.382-1.705 11.031-5.114l6.001 6.72c-1.831 2.592-4.31 4.62-7.438 6.086-3.128 1.437-6.593 2.155-10.397 2.155zm-1.395-37.53c-2.423 0-4.395.817-5.917 2.451-1.493 1.634-2.451 3.973-2.874 7.016h16.991v-.972c-.057-2.705-.789-4.79-2.198-6.255-1.409-1.494-3.41-2.24-6.002-2.24zm52.873 2.409c-1.663-.226-3.128-.338-4.396-.338-4.621 0-7.65 1.563-9.086 4.69V80h-12.215V34.27h11.538l.338 5.452c2.452-4.198 5.847-6.297 10.186-6.297 1.353 0 2.62.183 3.804.55l-.169 11.749zm30.684 21.639c0-1.493-.747-2.663-2.24-3.508-1.466-.873-3.832-1.648-7.101-2.324-10.876-2.283-16.314-6.904-16.314-13.863 0-4.057 1.677-7.439 5.03-10.144 3.381-2.733 7.79-4.1 13.228-4.1 5.805 0 10.44 1.367 13.905 4.1 3.494 2.733 5.241 6.284 5.241 10.651h-12.214c0-1.747-.564-3.184-1.691-4.31-1.127-1.156-2.888-1.734-5.283-1.734-2.057 0-3.649.465-4.776 1.395-1.127.93-1.69 2.113-1.69 3.55 0 1.353.634 2.452 1.902 3.297 1.296.817 3.465 1.535 6.508 2.155 3.043.592 5.607 1.268 7.692 2.029 6.453 2.367 9.679 6.466 9.679 12.299 0 4.17-1.789 7.551-5.368 10.143-3.578 2.564-8.199 3.846-13.862 3.846-3.832 0-7.242-.676-10.228-2.028-2.959-1.381-5.283-3.255-6.974-5.621-1.69-2.395-2.536-4.974-2.536-7.735h11.581c.112 2.17.915 3.832 2.409 4.987 1.493 1.156 3.494 1.733 6.001 1.733 2.339 0 4.1-.437 5.283-1.31 1.212-.902 1.818-2.071 1.818-3.508z" fill="#fff"/></svg>